<svg xmlns="http://www.w3.org/2000/svg" width="41" height="30" fill="none" viewBox="0 0 41 30">
    <g filter="url(#filter0_d)" opacity=".9">
        <path fill="url(#paint0_linear)" d="M.867 5.13c0-2.76 2.239-5 5-5H35.171c2.761 0 5 2.24 5 5v18.71c0 2.761-2.239 5-5 5H5.867c-2.761 0-5-2.239-5-5V5.13z"/>
    </g>
    <g opacity=".8">
        <g filter="url(#filter1_d)">
            <path fill="#b4b4b4" d="M25.939 9.478H40.191V10.145999999999999H25.939z"/>
        </g>
        <g filter="url(#filter2_d)">
            <path fill="#bebebe" d="M25.939 18.825H40.191V19.493H25.939z"/>
        </g>
        <g filter="url(#filter3_d)">
            <path fill="#bebebe" d="M0.846 9.478H15.098V10.145999999999999H0.846z"/>
        </g>
        <g filter="url(#filter4_d)">
            <path fill="#b4b4b4" d="M0.846 18.825H15.098V19.493H0.846z"/>
        </g>
        <g filter="url(#filter5_d)">
            <path stroke="#b3b3b3" stroke-width=".7" d="M15.35 20.015c.836 4.004 2.836 6.822 5.17 6.822 2.345 0 4.353-2.848 5.182-6.885.262-1.276-.835-4.006-.835-5.467 0-1.44 1.101-4.151.846-5.412-.822-4.066-2.838-6.94-5.194-6.94-2.342 0-4.348 2.84-5.179 6.868-.264 1.28.832 4.016.832 5.484 0 1.486-1.093 4.237-.823 5.53z"/>
        </g>
    </g>
    <defs>
        <filter id="filter0_d" width="39.304" height="29.209" x=".867" y=".131" color-interpolation-filters="sRGB" filterUnits="userSpaceOnUse">
            <feFlood flood-opacity="0" result="BackgroundImageFix"/>
            <feColorMatrix in="SourceAlpha" values="0 0 0 0 0 0 0 0 0 0 0 0 0 0 0 0 0 0 127 0"/>
            <feOffset dy=".5"/>
            <feColorMatrix values="0 0 0 0 0.752941 0 0 0 0 0.67451 0 0 0 0 0.490196 0 0 0 0.768876 0"/>
            <feBlend in2="BackgroundImageFix" result="effect1_dropShadow"/>
            <feBlend in="SourceGraphic" in2="effect1_dropShadow" result="shape"/>
        </filter>
        <filter id="filter1_d" width="14.252" height="1.168" x="25.939" y="9.478" color-interpolation-filters="sRGB" filterUnits="userSpaceOnUse">
            <feFlood flood-opacity="0" result="BackgroundImageFix"/>
            <feColorMatrix in="SourceAlpha" values="0 0 0 0 0 0 0 0 0 0 0 0 0 0 0 0 0 0 127 0"/>
            <feOffset dy=".5"/>
            <feColorMatrix values="0 0 0 0 0 0 0 0 0 0 0 0 0 0 0 0 0 0 0.08 0"/>
            <feBlend in2="BackgroundImageFix" result="effect1_dropShadow"/>
            <feBlend in="SourceGraphic" in2="effect1_dropShadow" result="shape"/>
        </filter>
        <filter id="filter2_d" width="14.252" height="1.168" x="25.939" y="18.825" color-interpolation-filters="sRGB" filterUnits="userSpaceOnUse">
            <feFlood flood-opacity="0" result="BackgroundImageFix"/>
            <feColorMatrix in="SourceAlpha" values="0 0 0 0 0 0 0 0 0 0 0 0 0 0 0 0 0 0 127 0"/>
            <feOffset dy=".5"/>
            <feColorMatrix values="0 0 0 0 0 0 0 0 0 0 0 0 0 0 0 0 0 0 0.08 0"/>
            <feBlend in2="BackgroundImageFix" result="effect1_dropShadow"/>
            <feBlend in="SourceGraphic" in2="effect1_dropShadow" result="shape"/>
        </filter>
        <filter id="filter3_d" width="14.252" height=".968" x=".846" y="9.478" color-interpolation-filters="sRGB" filterUnits="userSpaceOnUse">
            <feFlood flood-opacity="0" result="BackgroundImageFix"/>
            <feColorMatrix in="SourceAlpha" values="0 0 0 0 0 0 0 0 0 0 0 0 0 0 0 0 0 0 127 0"/>
            <feOffset dy=".3"/>
            <feColorMatrix values="0 0 0 0 0 0 0 0 0 0 0 0 0 0 0 0 0 0 0.08 0"/>
            <feBlend in2="BackgroundImageFix" result="effect1_dropShadow"/>
            <feBlend in="SourceGraphic" in2="effect1_dropShadow" result="shape"/>
        </filter>
        <filter id="filter4_d" width="14.252" height=".968" x=".846" y="18.825" color-interpolation-filters="sRGB" filterUnits="userSpaceOnUse">
            <feFlood flood-opacity="0" result="BackgroundImageFix"/>
            <feColorMatrix in="SourceAlpha" values="0 0 0 0 0 0 0 0 0 0 0 0 0 0 0 0 0 0 127 0"/>
            <feOffset dy=".3"/>
            <feColorMatrix values="0 0 0 0 0 0 0 0 0 0 0 0 0 0 0 0 0 0 0.08 0"/>
            <feBlend in2="BackgroundImageFix" result="effect1_dropShadow"/>
            <feBlend in="SourceGraphic" in2="effect1_dropShadow" result="shape"/>
        </filter>
        <filter id="filter5_d" width="11.153" height="25.903" x="14.949" y="1.784" color-interpolation-filters="sRGB" filterUnits="userSpaceOnUse">
            <feFlood flood-opacity="0" result="BackgroundImageFix"/>
            <feColorMatrix in="SourceAlpha" values="0 0 0 0 0 0 0 0 0 0 0 0 0 0 0 0 0 0 127 0"/>
            <feOffset dy=".5"/>
            <feColorMatrix values="0 0 0 0 0 0 0 0 0 0 0 0 0 0 0 0 0 0 0.0817581 0"/>
            <feBlend in2="BackgroundImageFix" result="effect1_dropShadow"/>
            <feBlend in="SourceGraphic" in2="effect1_dropShadow" result="shape"/>
        </filter>
        <linearGradient id="paint0_linear" x1=".867" x2="40.171" y1="28.84" y2="28.84" gradientUnits="userSpaceOnUse">
            <stop stop-color="#f3f3f3"/>
            <stop offset="1" stop-color="#d3d3d3"/>
        </linearGradient>
    </defs>
</svg>
